<?xml version="1.0" encoding="UTF-8"?>
<svg xmlns="http://www.w3.org/2000/svg" xmlns:xlink="http://www.w3.org/1999/xlink" width="716.84pt" height="156.08pt" viewBox="0 0 716.84 156.08" version="1.1">
<defs>
<clipPath id="clip1">
  <path d="M 412 0 L 569 0 L 569 156.078125 L 412 156.078125 Z M 412 0 "/>
</clipPath>
<clipPath id="clip2">
  <path d="M 560 0 L 716.839844 0 L 716.839844 156.078125 L 560 156.078125 Z M 560 0 "/>
</clipPath>
</defs>
<g id="surface1">
<g clip-path="url(#clip1)" clip-rule="nonzero">
<path style=" stroke:none;fill-rule:nonzero;fill:rgb(12.199402%,14.099121%,33.299255%);fill-opacity:1;" d="M 412.476563 77.917969 C 412.539063 34.820313 447.535156 -0.0625 490.632813 0.00390625 C 533.730469 0.0703125 568.617188 35.0625 568.550781 78.160156 C 568.480469 121.179688 533.613281 156.03125 490.59375 156.078125 C 447.472656 156.054688 412.53125 121.078125 412.554688 77.957031 C 412.554688 77.945313 412.554688 77.933594 412.554688 77.917969 "/>
</g>
<path style=" stroke:none;fill-rule:nonzero;fill:rgb(100%,100%,100%);fill-opacity:1;" d="M 443.867188 91.871094 L 443.867188 96.496094 C 443.867188 113.9375 453.117188 115.800781 467.554688 116.777344 C 472.625 117.097656 477.855469 117.097656 482.886719 117.097656 C 492.742188 117.097656 502.4375 117.097656 512.253906 116.289063 C 529.691406 115.070313 537.804688 111.421875 537.804688 92.601563 C 537.804688 72.726563 527.503906 69.238281 509.980469 69.238281 C 504.949219 69.238281 499.964844 69.238281 494.851563 69.238281 L 479.4375 68.75 C 474.328125 68.75 466.460938 69.320313 466.460938 61.855469 C 466.460938 57.234375 470.71875 56.339844 474.734375 56.097656 C 480.574219 55.855469 486.292969 55.488281 492.175781 55.488281 C 495.824219 55.488281 499.476563 55.488281 503.246094 55.488281 C 508.359375 55.488281 511.765625 56.949219 512.050781 62.789063 L 534.519531 62.789063 C 534.941406 57.757813 534.105469 52.695313 532.085938 48.066406 C 526.730469 38.898438 516.269531 38.898438 506.9375 38.738281 L 490.714844 38.535156 C 479.445313 38.21875 468.171875 38.992188 457.050781 40.847656 C 444.882813 44.089844 443.058594 51.796875 443.058594 63.15625 C 443.058594 77.59375 447.519531 84.328125 462.28125 85.382813 C 474.855469 86.191406 487.429688 86.191406 500.003906 86.191406 L 503.652344 86.191406 C 508.683594 86.191406 514.277344 86.800781 514.277344 93.089844 C 514.277344 99.375 509.210938 99.457031 504.140625 99.699219 C 499.070313 99.941406 493.839844 100.105469 488.726563 100.105469 C 485.15625 100.105469 481.589844 100.105469 477.9375 100.105469 C 472.746094 100.105469 466.175781 100.105469 466.175781 93.007813 C 466.222656 92.578125 466.222656 92.140625 466.175781 91.707031 L 443.867188 91.871094 "/>
<g clip-path="url(#clip2)" clip-rule="nonzero">
<path style=" stroke:none;fill-rule:nonzero;fill:rgb(12.199402%,14.099121%,33.299255%);fill-opacity:1;" d="M 560.761719 77.917969 C 560.828125 34.820313 595.820313 -0.0625 638.921875 0.00390625 C 682.019531 0.0703125 716.902344 35.0625 716.835938 78.160156 C 716.769531 121.230469 681.824219 156.101563 638.757813 156.078125 C 595.636719 156.03125 560.71875 121.039063 560.761719 77.917969 "/>
</g>
<path style=" stroke:none;fill-rule:nonzero;fill:rgb(100%,100%,100%);fill-opacity:1;" d="M 662.730469 102.660156 L 669.625 116.855469 L 694.285156 116.855469 L 654.292969 38.859375 L 624.15625 38.859375 L 583.3125 117.019531 L 608.21875 117.019531 L 615.519531 102.824219 Z M 654.617188 86.4375 L 623.144531 86.4375 L 638.882813 55.488281 Z M 654.617188 86.4375 "/>
<path style=" stroke:none;fill-rule:nonzero;fill:rgb(12.199402%,14.099121%,33.299255%);fill-opacity:1;" d="M 139.324219 117.019531 L 171.570313 38.820313 L 156.316406 38.820313 L 132.632813 96.171875 L 110.242188 38.859375 L 81.527344 38.859375 L 81.527344 41.292969 C 85.421875 41.660156 88.796875 44.160156 90.285156 47.78125 L 117.460938 117.019531 Z M 282.417969 117.019531 L 314.867188 38.820313 L 299.453125 38.820313 L 275.808594 96.171875 L 253.257813 38.859375 L 224.621094 38.859375 L 224.621094 41.292969 C 228.5 41.691406 231.84375 44.183594 233.339844 47.78125 L 260.515625 117.019531 Z M 332.996094 38.820313 L 332.996094 41.335938 C 335.429688 41.859375 340.824219 43.363281 338.675781 48.226563 L 308.253906 117.019531 L 324.480469 117.019531 L 334.011719 95.523438 L 367.675781 95.523438 L 375.992188 117.019531 L 397.082031 117.019531 L 366.863281 38.820313 Z M 338.148438 85.867188 L 351.816406 55.125 L 363.742188 85.867188 Z M 24.742188 38.820313 L 24.742188 41.335938 C 27.175781 41.859375 32.570313 43.363281 30.417969 48.226563 L 0 117.019531 L 16.222656 117.019531 L 25.550781 95.523438 L 59.21875 95.523438 L 67.328125 117.019531 L 88.542969 117.019531 L 58.527344 38.859375 Z M 29.890625 85.867188 L 43.5625 55.125 L 55.527344 85.867188 Z M 185.035156 41.335938 C 186.65625 41.65625 192.742188 43.441406 192.742188 47.742188 L 192.742188 117.019531 L 213.019531 117.019531 L 213.019531 38.820313 L 185.035156 38.820313 L 185.035156 41.335938 "/>
</g>
</svg>
