<?xml version="1.0" encoding="UTF-8"?>
<svg xmlns="http://www.w3.org/2000/svg" xmlns:xlink="http://www.w3.org/1999/xlink" width="841.89pt" height="595.28pt" viewBox="0 0 841.89 595.28" version="1.1">
<g id="surface1">
<path style=" stroke:none;fill-rule:nonzero;fill:rgb(17.298889%,17.298889%,17.298889%);fill-opacity:1;" d="M 491.976563 306.003906 C 488.542969 306.003906 485.601563 302.671875 485.601563 294.039063 C 485.601563 284.429688 491.386719 271.289063 500.3125 271.289063 C 504.332031 271.289063 506 275.308594 506 280.605469 C 506 290.902344 499.726563 306.003906 491.976563 306.003906 Z M 454.316406 298.257813 C 451.992188 301.886719 448.371094 304.4375 445.613281 304.4375 C 442.941406 304.4375 440.960938 302.277344 440.960938 297.375 C 440.960938 286.683594 444.664063 271.1875 455.09375 271.1875 C 456.386719 271.1875 457.679688 271.386719 459.144531 271.972656 Z M 436.050781 342.785156 C 434.929688 342.785156 432.519531 341.605469 432.519531 338.175781 C 432.519531 331.605469 440.445313 324.246094 449.925781 319.933594 C 445.527344 336.019531 441.996094 342.785156 436.050781 342.785156 Z M 390.136719 271.480469 C 391.804688 271.480469 392.980469 273.054688 392.980469 275.308594 C 392.980469 281.683594 386.507813 288.546875 376.992188 294.53125 C 377.289063 287.664063 380.429688 271.480469 390.136719 271.480469 Z M 358.167969 250.199219 C 359.242188 250.199219 359.835938 250.6875 359.835938 252.359375 C 359.835938 255.691406 356.203125 269.617188 347.574219 285.605469 C 350.90625 264.910156 354.929688 250.199219 358.167969 250.199219 Z M 498.152344 263.835938 C 483.34375 263.835938 473.046875 282.367188 473.046875 297.179688 C 473.046875 298.605469 473.164063 300 473.378906 301.351563 C 470.472656 303.777344 466.683594 306.167969 462.761719 308.359375 C 463.019531 307.085938 463.277344 305.710938 463.535156 304.339844 L 470.777344 265.5 C 469.742188 264.714844 468.277344 264.226563 466.726563 264.226563 C 464.570313 264.226563 462.246094 265.109375 460.78125 267.066406 C 458.628906 264.910156 455.867188 263.835938 451.992188 263.835938 C 440.015625 263.835938 430.277344 280.898438 430.277344 298.0625 C 430.277344 298.992188 430.316406 300.011719 430.414063 301.066406 C 427.910156 303.246094 424.1875 305.222656 420.929688 305.222656 C 418.378906 305.222656 416.808594 303.453125 417.988281 297.964844 L 423.773438 270.402344 L 428.089844 270.402344 C 431.128906 270.402344 432.695313 267.855469 432.207031 264.714844 L 425.050781 264.714844 L 427.796875 251.769531 C 426.617188 250.984375 424.949219 250.496094 423.1875 250.496094 C 419.652344 250.496094 415.929688 252.160156 414.945313 256.675781 L 413.183594 264.714844 L 411.21875 264.714844 C 408.179688 264.714844 406.609375 267.265625 407.101563 270.402344 L 412.003906 270.402344 L 406.699219 295.425781 C 402.480469 301.011719 393.464844 306.003906 386.410156 306.003906 C 381.898438 306.003906 378.269531 304.042969 377.289063 298.746094 C 396.21875 288.253906 400.632813 281.585938 400.632813 273.25 C 400.632813 268.835938 398.375 263.832031 389.449219 263.832031 C 373.269531 263.832031 364.832031 284.230469 364.832031 296.984375 C 364.832031 298.382813 364.941406 299.683594 365.136719 300.90625 C 359.605469 303.3125 354.144531 305.023438 351.105469 305.023438 C 347.671875 305.023438 345.121094 303.0625 345.808594 297.964844 C 345.90625 296.785156 346.105469 295.511719 346.300781 294.335938 C 358.949219 275.015625 365.324219 259.320313 365.324219 251.671875 C 365.324219 246.570313 362.089844 243.726563 357.480469 243.726563 C 344.632813 243.726563 338.0625 264.519531 333.550781 300.023438 C 332.273438 310.320313 337.472656 314.539063 344.339844 314.539063 C 350.328125 314.539063 358.804688 310.363281 366.535156 305.707031 C 369.242188 311.714844 374.914063 314.539063 381.507813 314.539063 C 389.34375 314.539063 398.433594 310.539063 405.179688 303.597656 C 404.445313 311.644531 408.109375 314.539063 413.378906 314.539063 C 419.589844 314.539063 426.585938 310.507813 431.226563 305.675781 C 432.496094 310.34375 435.300781 314.539063 441.046875 314.539063 C 445.699219 314.539063 450.097656 310.8125 453.628906 305.417969 C 452.9375 308.164063 452.335938 310.613281 451.730469 313.066406 C 440.101563 317.96875 426.65625 327.285156 426.65625 339.449219 C 426.65625 347.589844 431.566406 351.511719 436.824219 351.511719 C 451.730469 351.511719 457.765625 332.191406 461.644531 313.949219 C 467.011719 311.109375 472.179688 307.363281 474.414063 305.429688 C 476.390625 310.753906 480.578125 314.539063 487.464844 314.539063 C 502.859375 314.539063 513.355469 296.003906 513.355469 281.390625 C 513.355469 271.777344 508.84375 263.835938 498.152344 263.835938 "/>
</g>
</svg>
